<mxfile host="app.diagrams.net" modified="2024-02-01T12:54:16.538Z" agent="Mozilla/5.0 (Windows NT 10.0; Win64; x64; rv:122.0) Gecko/20100101 Firefox/122.0" etag="aJNwugskELDA9l_5eoNG" version="23.1.0" type="device">
  <diagram name="Page-1" id="bd83a815-5ea8-2e97-e5ec-87c9f400f2fa">
    <mxGraphModel dx="1885" dy="875" grid="1" gridSize="10" guides="1" tooltips="1" connect="1" arrows="1" fold="1" page="0" pageScale="1.5" pageWidth="1169" pageHeight="826" background="none" math="1" shadow="0">
      <root>
        <mxCell id="0" style=";html=1;" />
        <mxCell id="1" style=";html=1;" parent="0" />
        <mxCell id="7A7Ont4KWelb-mQZ-whx-6" value="1 - Framing" style="rounded=1;whiteSpace=wrap;html=1;fillColor=#f5f5f5;strokeColor=#666666;fontSize=36;fontStyle=1;fontColor=#333333;verticalAlign=bottom;horizontal=1;labelPosition=center;verticalLabelPosition=top;align=center;" parent="1" vertex="1">
          <mxGeometry x="-70" y="270" width="230.25" height="460" as="geometry" />
        </mxCell>
        <mxCell id="7A7Ont4KWelb-mQZ-whx-98" value="&lt;font style=&quot;font-size: 35px;&quot;&gt;2 - Identification&lt;/font&gt;" style="rounded=1;whiteSpace=wrap;html=1;fillColor=#dae8fc;strokeColor=#6c8ebf;fontSize=35;fontStyle=1;verticalAlign=bottom;labelPosition=center;verticalLabelPosition=top;align=center;" parent="1" vertex="1">
          <mxGeometry x="203" y="270" width="274" height="460" as="geometry" />
        </mxCell>
        <mxCell id="7A7Ont4KWelb-mQZ-whx-1" value="&lt;b style=&quot;font-size: 36px;&quot;&gt;3 - Estimation&lt;/b&gt;" style="rounded=1;whiteSpace=wrap;html=1;fillColor=#b0e3e6;strokeColor=#0e8088;fontSize=36;labelPosition=center;verticalLabelPosition=top;align=center;verticalAlign=bottom;spacingLeft=0;" parent="1" vertex="1">
          <mxGeometry x="513" y="270" width="797" height="460" as="geometry" />
        </mxCell>
        <mxCell id="UJCGpMKkWv5VHLOaRZoO-3" value="&lt;font style=&quot;font-size: 30px;&quot;&gt;Feature extraction&lt;br&gt;&lt;/font&gt;" style="rounded=1;whiteSpace=wrap;html=1;verticalAlign=bottom;labelPosition=center;verticalLabelPosition=top;align=center;fillColor=#b0e3e6;strokeColor=#0e8088;strokeWidth=4;fontStyle=1" parent="1" vertex="1">
          <mxGeometry x="540" y="350" width="260" height="360" as="geometry" />
        </mxCell>
        <mxCell id="UJCGpMKkWv5VHLOaRZoO-34" value="Causal estimator" style="rounded=1;whiteSpace=wrap;html=1;verticalAlign=bottom;labelPosition=center;verticalLabelPosition=top;align=center;fillColor=#b0e3e6;strokeColor=#0e8088;fontSize=30;strokeWidth=4;fontStyle=1" parent="1" vertex="1">
          <mxGeometry x="820" y="350" width="300" height="360" as="geometry" />
        </mxCell>
        <mxCell id="JQVkvr5YXo8bN9fTYGfa-8" value="&lt;div&gt;- Propensity matching&lt;/div&gt;&lt;div&gt;- Inverse propensity weighting&lt;/div&gt;&lt;div&gt;- Outcome model &lt;br&gt;(T-learner)&lt;br&gt;&lt;/div&gt;&lt;div&gt;- Double Machine Learning&lt;br&gt;&lt;/div&gt;&lt;div&gt;- Doubly robust &lt;br&gt;(AIPW)&lt;/div&gt;" style="text;html=1;strokeColor=none;fillColor=none;align=center;verticalAlign=middle;whiteSpace=wrap;rounded=0;fontSize=30;fontStyle=2" parent="1" vertex="1">
          <mxGeometry x="813.5" y="340" width="313" height="380" as="geometry" />
        </mxCell>
        <mxCell id="7A7Ont4KWelb-mQZ-whx-83" value="" style="group" parent="1" vertex="1" connectable="0">
          <mxGeometry x="-60.25" y="110" width="303.25" height="670" as="geometry" />
        </mxCell>
        <mxCell id="7A7Ont4KWelb-mQZ-whx-65" value="&lt;font&gt;ðŸ’Š &lt;b&gt;Comparator &lt;/b&gt;&lt;i&gt;&lt;br&gt;&lt;/i&gt;&lt;/font&gt;&lt;i&gt;A=0, &lt;/i&gt;&lt;i&gt;crystralloids&lt;/i&gt;" style="text;html=1;strokeColor=none;fillColor=none;align=center;verticalAlign=middle;whiteSpace=wrap;rounded=0;fontSize=28;fontColor=#000000;" parent="7A7Ont4KWelb-mQZ-whx-83" vertex="1">
          <mxGeometry x="-7.75" y="379" width="224.75" height="97" as="geometry" />
        </mxCell>
        <mxCell id="7A7Ont4KWelb-mQZ-whx-67" value="&lt;font style=&quot;font-size: 28px;&quot; color=&quot;#000000&quot;&gt;&lt;b style=&quot;font-size: 28px;&quot;&gt;ðŸ“ˆ &lt;/b&gt;&lt;/font&gt;&lt;font style=&quot;font-size: 28px;&quot; color=&quot;#000000&quot;&gt;&lt;b style=&quot;font-size: 28px;&quot;&gt;Outcome&lt;/b&gt;&lt;/font&gt;&lt;font color=&quot;#000000&quot;&gt;&lt;br&gt;&lt;i&gt;Y = 28-day mortality&lt;br&gt;&lt;/i&gt;&lt;/font&gt;" style="text;html=1;strokeColor=none;fillColor=none;align=center;verticalAlign=middle;whiteSpace=wrap;rounded=0;fontSize=28;fontColor=#B5739D;" parent="7A7Ont4KWelb-mQZ-whx-83" vertex="1">
          <mxGeometry x="-35.75" y="484" width="243" height="74" as="geometry" />
        </mxCell>
        <mxCell id="7A7Ont4KWelb-mQZ-whx-68" value="&lt;font&gt;ðŸ’Š &lt;font style=&quot;font-size: 28px;&quot;&gt;&lt;b style=&quot;font-size: 28px;&quot;&gt;Intervention&lt;/b&gt;&lt;/font&gt;&lt;/font&gt;&lt;br&gt;&lt;i&gt;A =1, albumin + crystralloids&lt;br&gt;&lt;/i&gt;" style="text;html=1;strokeColor=none;fillColor=none;align=center;verticalAlign=middle;whiteSpace=wrap;rounded=0;fontSize=28;fontColor=#000000;" parent="7A7Ont4KWelb-mQZ-whx-83" vertex="1">
          <mxGeometry x="-0.75" y="299" width="210.75" height="61" as="geometry" />
        </mxCell>
        <mxCell id="7A7Ont4KWelb-mQZ-whx-71" value="âŒ› &lt;font style=&quot;font-size: 28px;&quot;&gt;&lt;b style=&quot;font-size: 28px;&quot;&gt;Time&lt;/b&gt;&lt;/font&gt;" style="text;html=1;strokeColor=none;fillColor=none;align=center;verticalAlign=middle;whiteSpace=wrap;rounded=0;fontSize=28;fontColor=#000000;" parent="7A7Ont4KWelb-mQZ-whx-83" vertex="1">
          <mxGeometry x="-54" y="585" width="243" height="30" as="geometry" />
        </mxCell>
        <mxCell id="7A7Ont4KWelb-mQZ-whx-84" value="&lt;font&gt;&lt;b&gt;Population&lt;/b&gt;&lt;/font&gt;&lt;i&gt;&lt;br&gt;Patients with sepsis in the ICU&lt;/i&gt;" style="text;html=1;strokeColor=none;fillColor=none;align=center;verticalAlign=middle;whiteSpace=wrap;rounded=0;fontSize=28;fontColor=#000000;" parent="7A7Ont4KWelb-mQZ-whx-83" vertex="1">
          <mxGeometry x="-14.75" y="190" width="243" height="61" as="geometry" />
        </mxCell>
        <mxCell id="7A7Ont4KWelb-mQZ-whx-101" value="" style="group" parent="1" vertex="1" connectable="0">
          <mxGeometry x="209" y="511" width="260" height="250" as="geometry" />
        </mxCell>
        <mxCell id="SahqUx1cHa1N3F9CKj1D-2" value="&lt;b&gt;Other bias &lt;/b&gt;&lt;i&gt;Immortal time bias &lt;/i&gt;&lt;i&gt;(24h observed)&lt;/i&gt;&lt;b&gt;&lt;i&gt;&lt;br&gt;&lt;/i&gt;&lt;/b&gt;" style="text;whiteSpace=wrap;html=1;fontSize=28;" parent="7A7Ont4KWelb-mQZ-whx-101" vertex="1">
          <mxGeometry x="9" y="39" width="240" height="121" as="geometry" />
        </mxCell>
        <mxCell id="7A7Ont4KWelb-mQZ-whx-103" value="4 - Vibration&lt;br style=&quot;font-size: 35px;&quot;&gt;Analysis" style="rounded=1;whiteSpace=wrap;html=1;fillColor=#b1ddf0;strokeColor=#10739e;fontSize=35;fontStyle=1;verticalAlign=bottom;labelPosition=center;verticalLabelPosition=top;align=center;" parent="1" vertex="1">
          <mxGeometry x="1340" y="270.25" width="260" height="460" as="geometry" />
        </mxCell>
        <mxCell id="Ovc3esVCRfBxRKt_X9Ao-7" value="5 - CATE" style="rounded=1;whiteSpace=wrap;html=1;fillColor=#8EB7DB;strokeColor=#23445d;fontSize=36;fontStyle=1;verticalAlign=bottom;labelPosition=center;verticalLabelPosition=top;align=center;" parent="1" vertex="1">
          <mxGeometry x="1633" y="268.75" width="267" height="460" as="geometry" />
        </mxCell>
        <mxCell id="Ovc3esVCRfBxRKt_X9Ao-32" value="&lt;div&gt;&lt;font style=&quot;font-size: 26px;&quot;&gt;All analysis steps matters. &lt;br&gt;&lt;br&gt;&lt;span style=&quot;font-weight: normal;&quot;&gt;Ordered by introduction of bias:&lt;/span&gt;&lt;br&gt; &lt;br&gt;&lt;i&gt;&lt;span style=&quot;font-weight: normal;&quot;&gt;- model selection&lt;/span&gt;&lt;/i&gt;&lt;/font&gt;&lt;/div&gt;&lt;div&gt;&lt;i&gt;&lt;font style=&quot;font-size: 26px; font-weight: normal;&quot;&gt;- confounder choice&lt;/font&gt;&lt;/i&gt;&lt;/div&gt;&lt;div&gt;&lt;i&gt;&lt;font style=&quot;font-size: 26px;&quot;&gt;&lt;span style=&quot;font-weight: normal;&quot;&gt;- immortal time bias &lt;/span&gt;&lt;br&gt;&lt;/font&gt;&lt;/i&gt;&lt;/div&gt;" style="text;html=1;strokeColor=none;fillColor=none;align=center;verticalAlign=middle;whiteSpace=wrap;rounded=0;fontSize=19;fontFamily=Helvetica;fontColor=default;fontStyle=1" parent="1" vertex="1">
          <mxGeometry x="1340" y="328.25" width="260" height="321" as="geometry" />
        </mxCell>
        <mxCell id="Ovc3esVCRfBxRKt_X9Ao-33" value="&lt;font style=&quot;font-size: 26px;&quot;&gt;Treatment effect in subgroups.&lt;br&gt;&lt;/font&gt;&lt;div&gt;&lt;i&gt;&lt;span style=&quot;font-weight: normal;&quot;&gt;&lt;br&gt;&lt;font style=&quot;font-size: 26px;&quot;&gt; &lt;/font&gt;&lt;/span&gt;&lt;/i&gt;&lt;/div&gt;&lt;div&gt;&lt;font style=&quot;font-size: 26px;&quot;&gt;&lt;i&gt;&lt;span style=&quot;font-weight: normal;&quot;&gt;Heterogeneity estimated for:&lt;/span&gt;&lt;/i&gt; &lt;/font&gt;&lt;/div&gt;&lt;font style=&quot;font-size: 26px;&quot;&gt;&lt;/font&gt;&lt;div&gt;&lt;span style=&quot;font-weight: normal;&quot;&gt;&lt;i&gt;&lt;font style=&quot;font-size: 26px;&quot;&gt;- Age&lt;br&gt;&lt;/font&gt;&lt;/i&gt;&lt;/span&gt;&lt;/div&gt;&lt;div&gt;&lt;span style=&quot;font-weight: normal;&quot;&gt;&lt;i&gt;&lt;font style=&quot;font-size: 26px;&quot;&gt;- Septic shock status&lt;br&gt;&lt;/font&gt;&lt;/i&gt;&lt;/span&gt;&lt;/div&gt;&lt;div&gt;&lt;span style=&quot;font-weight: normal;&quot;&gt;&lt;i&gt;&lt;font style=&quot;font-size: 26px;&quot;&gt;- Sex&lt;br&gt;&lt;/font&gt;&lt;/i&gt;&lt;/span&gt;&lt;/div&gt;" style="text;html=1;strokeColor=none;fillColor=none;align=center;verticalAlign=middle;whiteSpace=wrap;rounded=0;fontSize=28;fontFamily=Helvetica;fontColor=default;fontStyle=1" parent="1" vertex="1">
          <mxGeometry x="1630" y="300" width="270" height="380" as="geometry" />
        </mxCell>
        <mxCell id="Ql6NIixIzX7x0oFvD5re-7" value="&lt;div&gt;&lt;b&gt;Confounders&lt;/b&gt;&lt;br&gt;&lt;i&gt;- Comorbidities&lt;br&gt;- Drugs&lt;br&gt;&lt;/i&gt;&lt;/div&gt;&lt;div&gt;&lt;i&gt;- Measurements&lt;/i&gt;&lt;/div&gt;&lt;div&gt;&lt;i&gt;- Demographics&lt;br&gt;- Social variables&lt;br&gt;&lt;/i&gt;&lt;/div&gt;&lt;div&gt;&lt;i&gt;&lt;br&gt;&lt;/i&gt;&lt;/div&gt;" style="text;whiteSpace=wrap;html=1;fontSize=28;" parent="1" vertex="1">
          <mxGeometry x="225" y="280" width="233" height="220" as="geometry" />
        </mxCell>
        <mxCell id="Ql6NIixIzX7x0oFvD5re-8" value="&lt;i&gt;Aggregation of logged measures:&lt;br&gt;&lt;/i&gt;&lt;br&gt;&lt;div&gt;&lt;i&gt;- First measure&lt;br&gt;- Last measure&lt;br&gt;&lt;/i&gt;&lt;/div&gt;&lt;div&gt;&lt;i&gt;- Median of measures&lt;br&gt;&lt;/i&gt;&lt;/div&gt;" style="text;whiteSpace=wrap;html=1;fontSize=28;" parent="1" vertex="1">
          <mxGeometry x="563.5" y="388.25" width="233" height="311.75" as="geometry" />
        </mxCell>
        <mxCell id="Ql6NIixIzX7x0oFvD5re-11" value="" style="group" parent="1" vertex="1" connectable="0">
          <mxGeometry x="1150" y="350" width="150" height="360" as="geometry" />
        </mxCell>
        <mxCell id="JQVkvr5YXo8bN9fTYGfa-13" value="Nuisance estimator" style="rounded=1;whiteSpace=wrap;html=1;verticalAlign=bottom;labelPosition=center;verticalLabelPosition=top;align=center;fillColor=#b0e3e6;strokeColor=#0e8088;fontSize=30;strokeWidth=4;fontStyle=1" parent="Ql6NIixIzX7x0oFvD5re-11" vertex="1">
          <mxGeometry width="134.99999999999997" height="360" as="geometry" />
        </mxCell>
        <mxCell id="7A7Ont4KWelb-mQZ-whx-4" value="&lt;div&gt;- Random &lt;br&gt;forest&lt;br&gt;&lt;br&gt;&lt;/div&gt;&lt;div&gt;- Logistic regression&lt;br&gt;&lt;/div&gt;" style="text;html=1;strokeColor=none;fillColor=none;align=center;verticalAlign=middle;whiteSpace=wrap;rounded=0;fontSize=26;fontStyle=2" parent="Ql6NIixIzX7x0oFvD5re-11" vertex="1">
          <mxGeometry x="7.5" y="30" width="120" height="310" as="geometry" />
        </mxCell>
      </root>
    </mxGraphModel>
  </diagram>
</mxfile>
